<svg width="479" height="99" viewBox="0 0 479 99" fill="none" xmlns="http://www.w3.org/2000/svg">
<g clip-path="url(#clip0_5326_1250)">
<path d="M45.5501 78.2703C49.8501 67.8203 44.1201 55.8403 33.3001 52.7203C29.5301 51.6303 25.8501 52.1803 22.0201 51.2303C14.4601 49.3603 8.0801 43.6003 5.4201 36.2803C5.2701 36.1703 4.5001 37.1203 4.3601 37.2903C-0.789902 43.3803 -1.4299 52.4603 2.6801 59.2903C8.7301 69.3303 22.2801 71.5503 31.3201 64.0403C32.0501 63.4403 32.6601 62.4303 33.6901 62.2603C35.5901 61.9403 37.0401 63.4403 36.6501 65.3303C36.4201 66.4303 34.1001 68.2103 33.1801 68.8803C27.2701 73.1903 19.7201 74.5603 12.6401 72.6303C11.3701 72.2903 10.1501 71.7903 8.9401 71.2803C8.8801 77.3203 12.1101 83.1403 16.9901 86.5803C26.9901 93.6103 40.9301 89.5003 45.5501 78.2703ZM27.6201 59.2903C27.5601 59.3503 27.5001 59.4203 27.4401 59.4803C25.0301 61.4703 22.1201 62.5203 19.0201 62.5203C14.3901 62.5203 10.2001 60.1603 7.8201 56.2103C6.4201 53.8903 5.8401 51.1503 6.0401 48.4803C9.9401 52.6303 14.9901 55.6803 20.5701 57.0603C22.9201 57.6403 25.1001 57.7803 27.0301 57.9003C27.7101 57.9403 28.3501 57.9803 28.9601 58.0403C28.3601 58.5103 27.9201 58.9703 27.6101 59.2903H27.6201ZM40.0001 75.9903C37.9901 80.8903 33.2401 84.0503 27.9001 84.0503C25.2301 84.0503 22.6501 83.2303 20.4501 81.6803C19.5601 81.0503 18.7501 80.3103 18.0401 79.4803C18.3701 79.4903 18.7001 79.5003 19.0301 79.5003C25.4401 79.5003 31.5601 77.5103 36.7301 73.7403C38.6101 72.3703 39.9801 71.1203 40.9401 69.9003C41.1201 71.9603 40.8101 74.0603 40.0101 76.0103L40.0001 75.9903Z" fill="#211F26"/>
<path d="M90.3502 33.5503C83.2302 28.9103 74.1402 29.5303 67.6102 34.9203C66.8802 35.5203 66.2702 36.5203 65.2402 36.7003C63.3402 37.0203 61.8902 35.5203 62.2802 33.6303C62.5202 32.4803 64.8502 30.7403 65.8102 30.0403C72.8102 24.9703 82.1302 24.0303 89.9902 27.6803C89.8802 13.1103 73.7602 4.05028 61.1302 11.6403C48.6902 19.1103 48.9802 37.3703 61.5902 44.5403C65.5602 46.8003 68.2402 46.7403 72.6102 47.0303C81.9102 47.6503 90.2302 53.8203 93.4802 62.5403L93.6602 62.6803C101.87 54.1203 100.29 40.0303 90.3402 33.5503H90.3502ZM58.0202 29.0403C57.9902 28.7203 57.9802 28.4003 57.9702 28.0703C57.9102 23.3803 60.2502 19.1603 64.2202 16.7703C66.3002 15.5203 68.5502 14.8803 70.8902 14.8803C74.5202 14.8803 78.3302 16.5303 80.9002 19.4703C80.5802 19.4603 80.2602 19.4503 79.9402 19.4503C73.6302 19.4503 67.3602 21.4803 62.2802 25.1603C60.3502 26.5603 58.9602 27.8003 58.0102 29.0303L58.0202 29.0403ZM92.9102 50.4603C87.8002 45.0203 80.7302 41.5603 73.0102 41.0503L71.7402 40.9703C71.1102 40.9303 70.5602 40.9003 70.0502 40.8603C70.6002 40.4203 71.0102 39.9903 71.3002 39.6903C71.3602 39.6303 71.4202 39.5703 71.4802 39.5103C73.9102 37.5303 76.9102 36.4403 79.9402 36.4403C82.4602 36.4403 84.9202 37.1803 87.0702 38.5803C90.3002 40.6803 92.4002 44.1103 92.8502 47.9903C92.9502 48.8203 92.9602 49.6503 92.9002 50.4703L92.9102 50.4603Z" fill="#211F26"/>
<path d="M44.6001 37.2097C46.8301 33.1997 46.7201 30.6197 47.0301 26.2397C47.6801 16.9697 53.9201 8.55973 62.6701 5.43973C62.7701 5.28973 61.8301 4.51973 61.6601 4.37973C53.0501 -2.91027 39.7301 -0.820271 33.5901 8.52973C28.9001 15.6697 29.5101 24.7797 34.9101 31.3397C35.5001 32.0497 36.5201 32.7297 36.6901 33.7097C37.0101 35.6097 35.5201 37.0597 33.6201 36.6697C32.7001 36.4797 31.3601 34.8497 30.7601 34.1097C25.5701 27.6397 24.0601 18.8897 26.8201 11.0297C27.0701 10.3297 27.4201 9.65973 27.6701 8.95973C12.8701 9.11973 3.89007 25.5297 11.8801 38.1997C19.5501 50.3597 37.6101 49.7597 44.6001 37.2197V37.2097ZM38.5901 11.8297C40.9901 8.17973 45.1001 5.99973 49.5901 5.99973C49.8801 5.99973 50.1901 5.99973 50.5101 6.02973C45.1001 11.1197 41.5801 18.2097 41.0401 25.8197C41.0001 26.3597 40.9701 26.8697 40.9401 27.3697C40.9001 27.9397 40.8701 28.4497 40.8401 28.9197C40.4101 28.3897 39.9901 27.9797 39.7001 27.6797C39.6201 27.5997 39.5501 27.5297 39.4801 27.4597C35.7401 22.9197 35.3701 16.7497 38.6001 11.8297H38.5901ZM16.5101 21.7297C17.2901 20.2897 18.3101 19.0397 19.4901 18.0297C19.2801 25.1297 21.5501 32.2297 26.0801 37.8697C26.9701 38.9797 27.9401 40.0797 29.0501 40.9397C28.6701 40.9697 28.2801 40.9897 27.8901 40.9897C23.3401 40.9897 19.3601 38.8097 16.9601 34.9997C14.3801 30.9097 14.2201 25.9497 16.5201 21.7297H16.5101Z" fill="#211F26"/>
<path d="M52.14 68.1603C51.91 69.6903 52.02 71.1303 51.92 72.6203C51.32 81.5103 45.9 89.1203 37.91 92.8603C37.43 93.0903 36.87 93.2103 36.41 93.4903C36.32 93.5403 36.23 93.4603 36.27 93.6703C42.4 99.5803 51.95 100.64 59.28 96.2603C69.37 90.2203 71.5 76.6803 64.03 67.6203C63.44 66.9103 62.42 66.2303 62.25 65.2503C61.93 63.3503 63.42 61.9003 65.32 62.2903C66.15 62.4603 67.1 63.5703 67.65 64.2103C73.75 71.2503 75.24 81.5203 71.27 90.0003C79.5 90.0703 87.01 84.2003 89.27 76.3603C91.13 69.8903 89.51 62.9303 84.92 58.0403C74 46.4003 54.47 52.4503 52.13 68.1503L52.14 68.1603ZM62.31 82.2303C61.66 86.0003 59.49 89.1503 56.21 91.1203C54.2 92.3203 51.88 92.9603 49.5 92.9603C49.14 92.9603 48.78 92.9503 48.42 92.9203C53.93 87.7603 57.39 80.7003 57.91 73.0303C57.96 72.3503 57.97 71.6903 57.98 71.0203C57.98 70.6303 57.99 70.2603 58.01 69.9203C58.47 70.5203 58.93 70.9703 59.25 71.2803C59.33 71.3603 59.4 71.4303 59.47 71.5003C61.91 74.4703 62.97 78.4003 62.31 82.2203V82.2303ZM83.52 74.7103C82.83 77.1103 81.38 79.2503 79.51 80.8703C79.74 73.4803 77.23 66.1003 72.2 60.2903C71.67 59.6803 70.92 58.8103 69.93 58.0403C70.32 58.0003 70.7 57.9903 71.09 57.9903C73.63 57.9903 77.34 58.7103 80.58 62.1603C83.68 65.4703 84.81 70.2803 83.54 74.7103H83.52Z" fill="#211F26"/>
</g>
<path d="M453.762 26.5312H463.242V76.9085H453.762V26.5312ZM438.558 22.0406H478.447V31.1349H438.558V22.0406Z" fill="#211F26"/>
<path d="M386.263 54.6066L409.127 22.0406H420.996L386.756 67.3991L386.263 54.6066ZM380.083 22.0406H389.562V76.9085H380.083V22.0406ZM395.439 48.6444L403.44 43.0217L423.309 76.9085H411.933L395.439 48.6444Z" fill="#211F26"/>
<path d="M321.911 67.8142H334.879C338.519 67.8142 341.325 66.9211 343.296 65.1349C345.293 63.3488 346.292 60.8205 346.292 57.55V41.3991C346.292 38.1286 345.293 35.6003 343.296 33.8142C341.325 32.028 338.519 31.1349 334.879 31.1349H321.911V22.0406H334.651C339.201 22.0406 343.082 22.8079 346.292 24.3425C349.502 25.8771 351.942 28.1161 353.61 31.0595C355.278 34.0029 356.113 37.55 356.113 41.701V57.2481C356.113 61.2733 355.291 64.7576 353.648 67.701C352.03 70.6444 349.603 72.9211 346.368 74.5312C343.157 76.1161 339.239 76.9085 334.613 76.9085H321.911V67.8142ZM316.678 22.0406H326.158V76.9085H316.678V22.0406Z" fill="#211F26"/>
<path d="M272.84 77.4746C268.896 77.4746 265.42 76.6444 262.412 74.9841C259.404 73.2985 257.079 70.9337 255.435 67.8897C253.792 64.8205 252.971 61.2734 252.971 57.2482V41.701C252.971 37.6759 253.792 34.1413 255.435 31.0973C257.079 28.0281 259.404 25.6633 262.412 24.0029C265.42 22.3174 268.896 21.4746 272.84 21.4746C276.783 21.4746 280.259 22.3174 283.267 24.0029C286.275 25.6633 288.601 28.0281 290.244 31.0973C291.887 34.1413 292.708 37.6759 292.708 41.701V57.2482C292.708 61.2734 291.887 64.8205 290.244 67.8897C288.601 70.9337 286.275 73.2985 283.267 74.9841C280.259 76.6444 276.783 77.4746 272.84 77.4746ZM272.84 68.0407C274.837 68.0407 276.593 67.613 278.11 66.7576C279.652 65.8771 280.828 64.6444 281.636 63.0595C282.471 61.4495 282.888 59.6004 282.888 57.5123V41.4369C282.888 39.3488 282.471 37.5123 281.636 35.9274C280.828 34.3174 279.652 33.0847 278.11 32.2293C276.593 31.3488 274.837 30.9086 272.84 30.9086C270.843 30.9086 269.073 31.3488 267.531 32.2293C266.014 33.0847 264.839 34.3174 264.005 35.9274C263.196 37.5123 262.791 39.3488 262.791 41.4369V57.5123C262.791 59.6004 263.196 61.4495 264.005 63.0595C264.839 64.6444 266.014 65.8771 267.531 66.7576C269.073 67.613 270.843 68.0407 272.84 68.0407Z" fill="#211F26"/>
<path d="M195.633 45.3614H214.706C215.894 45.3614 216.943 45.0721 217.853 44.4935C218.788 43.9149 219.496 43.0847 219.976 42.0029C220.482 40.896 220.747 39.6381 220.773 38.2293C220.773 36.8205 220.52 35.5752 220.014 34.4935C219.509 33.3866 218.801 32.5438 217.891 31.9652C216.981 31.3866 215.919 31.0972 214.706 31.0972H195.633V22.0029H215.161C218.245 22.0029 220.95 22.6822 223.275 24.0406C225.626 25.374 227.434 27.2733 228.697 29.7388C229.987 32.179 230.631 35.0092 230.631 38.2293C230.631 41.4494 229.987 44.2922 228.697 46.7576C227.408 49.1979 225.588 51.0972 223.237 52.4557C220.912 53.7891 218.22 54.4557 215.161 54.4557H195.633V45.3614ZM191.766 22.0029H201.245V76.9086H191.766V22.0029ZM208.374 52.7576L218.346 51.0218L232.944 76.9086H221.493L208.374 52.7576Z" fill="#211F26"/>
<path d="M135.414 46.5312H153.046C154.436 46.5312 155.65 46.2167 156.686 45.5878C157.748 44.9588 158.569 44.0658 159.151 42.9085C159.732 41.7261 160.023 40.3802 160.023 38.8708C160.023 37.3362 159.732 35.9903 159.151 34.8331C158.594 33.6507 157.786 32.745 156.724 32.1161C155.662 31.462 154.436 31.1349 153.046 31.1349H135.414V22.0406H152.78C156.168 22.0406 159.151 22.745 161.729 24.1538C164.307 25.5375 166.304 27.4997 167.72 30.0406C169.136 32.5815 169.843 35.5249 169.843 38.8708C169.843 42.2167 169.136 45.1601 167.72 47.701C166.304 50.2167 164.307 52.1664 161.729 53.55C159.151 54.9337 156.168 55.6255 152.78 55.6255H135.414V46.5312ZM130.94 22.0406H140.419V76.9085H130.94V22.0406Z" fill="#211F26"/>
<defs>
<clipPath id="clip0_5326_1250">
<rect width="98.94" height="98.95" fill="white"/>
</clipPath>
</defs>
</svg>
