<svg width="416" height="110" viewBox="0 0 416 110" fill="none" xmlns="http://www.w3.org/2000/svg">
<path d="M49.3965 0H61.6064C62.7413 12.5745 68.3638 24.376 77.3782 33.3073C81.4387 37.3312 86.1355 40.7245 91.3074 43.3264C86.7738 44.8598 82.3986 46.8136 78.2316 49.1675C74.9394 46.9095 71.8642 44.3629 69.0412 41.5682C63.448 36.0254 58.8342 29.4509 55.499 22.1529C52.1638 29.4509 47.553 36.0254 41.9588 41.5682C31.0451 52.3826 16.3456 59.453 0 60.6571V48.9351C13.0867 47.7591 24.8449 42.009 33.6247 33.3082C42.6401 24.377 48.2587 12.5745 49.3965 0ZM55.5 87.8481C58.8352 80.5471 63.449 73.9727 69.0422 68.4298C79.9568 57.6164 94.6573 50.545 111 49.3409V61.063C97.9133 62.238 86.158 67.9891 77.3782 76.6898C68.3628 85.624 62.7413 97.4255 61.6064 110H49.3965C48.2587 97.4255 42.6401 85.623 33.6247 76.6898C29.5642 72.6659 24.8644 69.2726 19.6955 66.6717C24.2291 65.1383 28.6043 63.1844 32.7684 60.8305C36.0636 63.0885 39.1387 65.6352 41.9608 68.4298C47.554 73.9727 52.1638 80.5471 55.5 87.8481ZM66.3374 57.4508L53.024 44.2573C51.7455 45.7423 50.4082 47.1769 49.0153 48.5563C47.6107 49.9483 46.161 51.2793 44.6655 52.5463L57.9789 65.7398C59.2575 64.2548 60.5957 62.8202 61.9876 61.4408C63.3913 60.0488 64.8419 58.7178 66.3374 57.4508Z" fill="#000"/>
<path d="M110.371 90V9.38181H142.157C150.603 9.38181 157.36 11.7236 162.427 16.4071C167.495 21.0139 170.028 27.233 170.028 35.0645C170.028 42.8192 167.495 49.0383 162.427 53.7218C157.36 58.4053 150.603 60.7471 142.157 60.7471H123.615V90H110.371ZM141.121 20.8987H123.615V49.2302H141.006C145.766 49.2302 149.528 47.9634 152.292 45.4297C155.133 42.8192 156.554 39.3641 156.554 35.0645C156.554 30.688 155.171 27.233 152.407 24.6993C149.643 22.1656 145.881 20.8987 141.121 20.8987Z" fill="#000"/>
<path d="M203.018 31.0336H205.782V42.6656H200.254C195.11 42.6656 191.386 44.3548 189.082 47.733C186.779 51.0345 185.627 55.2574 185.627 60.4016V90H173.189V31.0336H184.245L185.627 39.9016C189.236 33.9896 195.033 31.0336 203.018 31.0336Z" fill="#000"/>
<path d="M254.521 82.3989C248.993 87.927 241.737 90.691 232.754 90.691C223.771 90.691 216.515 87.927 210.987 82.3989C205.459 76.8708 202.695 69.5767 202.695 60.5168C202.695 51.5336 205.459 44.278 210.987 38.7499C216.515 33.145 223.771 30.3425 232.754 30.3425C241.737 30.3425 248.993 33.145 254.521 38.7499C260.049 44.278 262.813 51.5336 262.813 60.5168C262.813 69.5767 260.049 76.8708 254.521 82.3989ZM220.2 74.6825C223.348 78.2912 227.533 80.0955 232.754 80.0955C237.975 80.0955 242.159 78.2912 245.307 74.6825C248.532 70.9971 250.144 66.2752 250.144 60.5168C250.144 54.7583 248.532 50.0748 245.307 46.4662C242.159 42.7808 237.975 40.9381 232.754 40.9381C227.533 40.9381 223.348 42.7808 220.2 46.4662C217.053 50.0748 215.479 54.7583 215.479 60.5168C215.479 66.2752 217.053 70.9971 220.2 74.6825Z" fill="#000"/>
<path d="M311.857 39.2105V9.38181H324.295V90H313.469L311.972 81.132C307.289 87.5047 300.877 90.691 292.739 90.691C284.523 90.691 277.805 88.0037 272.584 82.6292C267.44 77.1779 264.868 69.8071 264.868 60.5168C264.868 51.5336 267.479 44.278 272.699 38.7499C277.997 33.145 284.677 30.3425 292.739 30.3425C301.185 30.3425 307.557 33.2985 311.857 39.2105ZM282.374 74.7977C285.522 78.4063 289.668 80.2106 294.812 80.2106C299.956 80.2106 304.102 78.4063 307.25 74.7977C310.398 71.1891 311.972 66.5056 311.972 60.7471C311.972 54.8351 310.398 50.0748 307.25 46.4662C304.102 42.7808 299.956 40.9381 294.812 40.9381C289.668 40.9381 285.522 42.7808 282.374 46.4662C279.226 50.0748 277.652 54.7583 277.652 60.5168C277.652 66.352 279.226 71.1123 282.374 74.7977Z" fill="#000"/>
<path d="M328.388 90V9.38181H340.826V59.5954L367.546 31.0336H382.172L359.944 54.8735L383.554 90H368.812L351.422 63.9718L340.826 75.0281V90H328.388Z" fill="#000"/>
<path d="M387.4 73.9915V41.9746H377.15V31.0336H387.4V14.5644H399.953V31.0336H414.349V41.9746H399.953V72.7247C399.953 75.028 400.414 76.6788 401.335 77.6769C402.256 78.5983 403.907 79.059 406.287 79.059H415.04V90H403.523C397.918 90 393.811 88.6948 391.2 86.0843C388.666 83.4738 387.4 79.4429 387.4 73.9915Z" fill="#000"/>
</svg>
