<svg width="130" height="128" viewBox="0 0 130 128" fill="none" xmlns="http://www.w3.org/2000/svg">
<path d="M57.4796 0H71.6874C73.008 14.6321 79.5506 28.3648 90.0401 38.7575C94.765 43.4399 100.23 47.3885 106.249 50.4161C100.973 52.2005 95.882 54.4741 91.0331 57.2131C87.2022 54.5856 83.6238 51.6222 80.3388 48.3703C73.8304 41.9205 68.4616 34.2702 64.5807 25.7779C60.6997 34.2702 55.3344 41.9205 48.8248 48.3703C36.1252 60.9543 19.0203 69.1817 0 70.5828V56.9426C15.2281 55.5742 28.9104 48.8832 39.1269 38.7587C49.6176 28.3659 56.1556 14.6321 57.4796 0ZM64.5818 102.223C68.4628 93.7276 73.8315 86.0773 80.34 79.6275C93.0407 67.0446 110.147 58.816 129.164 57.4149V71.0551C113.936 72.4224 100.257 79.1146 90.0401 89.2391C79.5494 99.6352 73.008 113.368 71.6874 128H57.4796C56.1556 113.368 49.6176 99.6341 39.1269 89.2391C34.402 84.5567 28.9332 80.6081 22.9184 77.5816C28.1938 75.7972 33.285 73.5237 38.1305 70.7846C41.9649 73.4121 45.5433 76.3755 48.8271 79.6275C55.3355 86.0773 60.6997 93.7276 64.5818 102.223ZM77.1927 66.8518L61.7007 51.4994C60.2129 53.2274 58.6569 54.8968 57.036 56.5019C55.4015 58.1217 53.7147 59.6704 51.9744 61.1448L67.4664 76.4972C68.9542 74.7692 70.5113 73.0999 72.131 71.4947C73.7644 69.8749 75.4524 68.3262 77.1927 66.8518Z" fill="#000"/>
</svg>
