<svg width="1385" height="150" viewBox="0 0 1385 150" fill="none" xmlns="http://www.w3.org/2000/svg">
<path d="M929.286 148.212V25.4608H883.539V1.86279H1000.7V25.4608H954.954V148.212H929.286Z" fill="currentColor"/>
<path d="M815.44 150L772.613 76H823.389L866.053 150H815.44Z" fill="currentColor" fill-opacity="0.9"/>
<path d="M772.613 76L815.44 2H764.664L722 76H772.613Z" fill="currentColor" fill-opacity="0.9"/>
<ellipse cx="744.549" cy="127.393" rx="22.5489" ry="22.6066" fill="currentColor" fill-opacity="0.9"/>
<path d="M538.976 148.212V1.86279H593.003C608.321 1.86279 621.293 4.82979 631.919 10.7638C642.545 16.5598 650.618 24.9778 656.138 36.0178C661.796 46.9198 664.625 60.0298 664.625 75.3478C664.625 90.3898 661.865 103.362 656.345 114.264C650.963 125.166 642.959 133.584 632.333 139.518C621.707 145.314 608.666 148.212 593.21 148.212H538.976ZM564.851 124.614H592.589C603.491 124.614 612.254 122.544 618.878 118.404C625.64 114.126 630.539 108.33 633.575 101.016C636.749 93.5638 638.336 84.9388 638.336 75.1408C638.336 65.6188 636.818 57.1318 633.782 49.6798C630.746 42.2278 625.847 36.3628 619.085 32.0848C612.461 27.6688 603.698 25.4608 592.796 25.4608H564.851V124.614Z" fill="currentColor"/>
<path d="M407.623 149.868C392.581 149.868 379.747 146.694 369.121 140.346C358.633 133.998 350.56 125.166 344.902 113.85C339.382 102.534 336.622 89.631 336.622 75.141C336.622 60.375 339.451 47.403 345.109 36.225C350.767 24.909 358.909 16.077 369.535 9.729C380.161 3.243 392.995 0 408.037 0C423.079 0 435.844 3.174 446.332 9.522C456.958 15.87 465.1 24.702 470.758 36.018C476.416 47.196 479.245 60.099 479.245 74.727C479.245 89.217 476.416 102.12 470.758 113.436C465.238 124.752 457.096 133.653 446.332 140.139C435.706 146.625 422.803 149.868 407.623 149.868ZM408.037 125.856C418.525 125.856 427.081 123.441 433.705 118.611C440.329 113.781 445.159 107.502 448.195 99.774C451.369 92.046 452.956 83.835 452.956 75.141C452.956 68.517 452.059 62.169 450.265 56.097C448.609 50.025 445.918 44.574 442.192 39.744C438.604 34.914 433.981 31.119 428.323 28.359C422.665 25.461 415.903 24.012 408.037 24.012C397.687 24.012 389.131 26.427 382.369 31.257C375.745 36.087 370.846 42.366 367.672 50.094C364.498 57.822 362.911 66.171 362.911 75.141C362.911 83.973 364.498 92.253 367.672 99.981C370.846 107.709 375.745 113.988 382.369 118.818C389.131 123.51 397.687 125.856 408.037 125.856Z" fill="currentColor"/>
<path d="M169.012 148.212V1.86279H226.765C234.217 1.86279 241.255 2.62179 247.879 4.13979C254.503 5.51978 260.368 8.00379 265.474 11.5918C270.58 15.0418 274.582 19.8028 277.48 25.8748C280.378 31.9468 281.827 39.4678 281.827 48.4378C281.827 55.8898 280.516 62.4448 277.894 68.1028C275.272 73.7608 271.615 78.5218 266.923 82.3858C262.369 86.2498 256.918 89.2168 250.57 91.2868L282.655 148.212H253.675L224.902 95.4268H194.887V148.212H169.012ZM194.887 72.4498H223.246C227.938 72.4498 232.216 72.1048 236.08 71.4148C240.082 70.5868 243.532 69.2758 246.43 67.4818C249.466 65.6878 251.743 63.2728 253.261 60.2368C254.917 57.0628 255.814 53.0608 255.952 48.2308C255.952 42.4348 254.71 37.8808 252.226 34.5688C249.88 31.2568 246.43 28.9108 241.876 27.5308C237.46 26.1508 232.147 25.4608 225.937 25.4608H194.887V72.4498Z" fill="currentColor"/>
<path d="M0 148.212V1.86279H55.062C66.102 1.86279 75.624 3.58779 83.628 7.03779C91.77 10.3498 98.049 15.6628 102.465 22.9768C107.019 30.2908 109.296 39.8818 109.296 51.7498C109.296 63.0658 106.812 72.5188 101.844 80.1088C96.876 87.6988 90.114 93.4258 81.558 97.2898C73.002 101.016 63.204 102.879 52.164 102.879H25.875V148.212H0ZM25.875 79.6948H51.75C61.272 79.6948 68.931 77.4178 74.727 72.8638C80.523 68.3098 83.421 61.1338 83.421 51.3358C83.421 42.7798 81.006 36.3628 76.176 32.0848C71.346 27.6688 63.894 25.4608 53.82 25.4608H25.875V79.6948Z" fill="currentColor"/>
<path d="M1359.12 148.344V1.99512H1384.99V148.344H1359.12Z" fill="currentColor"/>
<path d="M1231.53 150C1217.59 150 1206.14 147.309 1197.17 141.927C1188.2 136.407 1181.57 128.679 1177.3 118.743C1173.02 108.807 1170.88 97.0771 1170.88 83.5531V1.99512H1196.75V84.1741C1196.75 91.6261 1197.79 98.5951 1199.86 105.081C1202.07 111.429 1205.72 116.535 1210.83 120.399C1216.07 124.263 1223.11 126.195 1231.94 126.195C1240.91 126.195 1247.81 124.263 1252.64 120.399C1257.61 116.397 1261.06 111.222 1262.99 104.874C1265.06 98.5261 1266.1 91.6261 1266.1 84.1741V1.99512H1292.18V83.5531C1292.18 96.9391 1290.04 108.6 1285.76 118.536C1281.49 128.472 1274.93 136.2 1266.1 141.72C1257.27 147.24 1245.74 150 1231.53 150Z" fill="currentColor"/>
<path d="M1024.7 148.488V126.132H1122.61V148.488H1024.7Z" fill="currentColor"/>
</svg>
